<?xml version="1.0" encoding="UTF-8" standalone="no"?>
<svg
   xml:space="preserve"
   version="1.1"
   style="image-rendering:optimizeQuality;shape-rendering:geometricPrecision;text-rendering:geometricPrecision"
   viewBox="0 0 241 297.18628"
   x="0px"
   y="0px"
   fill-rule="evenodd"
   clip-rule="evenodd"
   id="svg3"
   sodipodi:docname="noun-quill.svg"
   width="241"
   height="297.18628"
   inkscape:version="1.4.2 (ebf0e940d0, 2025-05-08)"
   xmlns:inkscape="http://www.inkscape.org/namespaces/inkscape"
   xmlns:sodipodi="http://sodipodi.sourceforge.net/DTD/sodipodi-0.dtd"
   xmlns="http://www.w3.org/2000/svg"
   xmlns:svg="http://www.w3.org/2000/svg"><sodipodi:namedview
     id="namedview3"
     pagecolor="#505050"
     bordercolor="#eeeeee"
     borderopacity="1"
     inkscape:showpageshadow="0"
     inkscape:pageopacity="0"
     inkscape:pagecheckerboard="0"
     inkscape:deskcolor="#505050"
     inkscape:zoom="2.1521886"
     inkscape:cx="120.57494"
     inkscape:cy="185.625"
     inkscape:window-width="1920"
     inkscape:window-height="1008"
     inkscape:window-x="0"
     inkscape:window-y="0"
     inkscape:window-maximized="1"
     inkscape:current-layer="svg3" /><defs
     id="defs1"><style
       type="text/css"
       id="style1">

    .fil0 {fill:black}
    .fil1 {fill:black;fill-rule:nonzero}

  </style></defs><g
     id="g2"><path
       class="fil0"
       d="M 0,285 C 34,198 65,148 116,99 159,59 211,47 241,0 c -12,44 -23,79 -76,94 9,1 18,2 28,-3 -7,16 -21,23 -38,32 8,1 17,1 26,-3 -11,23 -18,30 -60,46 11,2 19,1 27,-2 -15,18 -37,31 -53,32 8,2 17,5 28,2 -27,16 -50,24 -86,25 -12,17 -25,44 -37,62 z"
       id="path1" /><path
       class="fil1"
       d="m 87,284 c 0,2 -2,4 -7,4 -3,1 -16,0 -21,1 -3,1 -3,2 1,3 30,5 88,0 121,-2 -18,5 -105,11 -124,4 -3,-1 -7,-4 -2,-7 3,-2 29,-1 29,-3 -1,-5 -68,1 -82,1 30,-4 85,-9 85,-1 z"
       id="path2" /></g></svg>
